<?xml version="1.0" encoding="UTF-8" standalone="no"?>
<!DOCTYPE svg PUBLIC "-//W3C//DTD SVG 1.1//EN" "http://www.w3.org/Graphics/SVG/1.1/DTD/svg11.dtd">
<svg width="100%" height="100%" viewBox="0 0 250 250" version="1.1" xmlns="http://www.w3.org/2000/svg" xmlns:xlink="http://www.w3.org/1999/xlink" xml:space="preserve" xmlns:serif="http://www.serif.com/" style="fill-rule:evenodd;clip-rule:evenodd;stroke-linejoin:round;stroke-miterlimit:2;">
    <g id="message-box" transform="matrix(0.488281,0,0,0.488302,0,0)">
        <path d="M64,0C28.7,0 0,28.7 0,64L0,352C0,387.3 28.7,416 64,416L160,416L160,496C160,502.1 163.4,507.6 168.8,510.3C174.2,513 180.7,512.4 185.6,508.8L309.3,416L448,416C483.3,416 512,387.3 512,352L512,64C512,28.7 483.3,0 448,0L64,0Z" style="fill-rule:nonzero;"/>
    </g>
</svg>
